<svg width="636" height="636" viewBox="0 0 636 636" fill="none" xmlns="http://www.w3.org/2000/svg">
<path opacity="0.454892" d="M452.479 501.467C351.143 575.748 208.778 553.815 134.497 452.479C60.2164 351.143 82.1491 208.778 183.485 134.497C284.821 60.2164 427.187 82.1491 501.467 183.485C575.748 284.821 553.815 427.187 452.479 501.467Z" fill="#FAFBFC"/>
<path fill-rule="evenodd" clip-rule="evenodd" d="M131.698 186.891C115.169 210.271 102.936 236.901 96.1343 265.632L180.4 218.88L131.698 186.891Z" fill="#DFE7EE"/>
<path fill-rule="evenodd" clip-rule="evenodd" d="M375.778 97.7453C357.324 92.9255 337.963 90.3514 318 90.3514C305.366 90.3514 292.977 91.3956 280.901 93.3725L291.563 150.747L375.778 97.7453Z" fill="#D7E0ED"/>
<path fill-rule="evenodd" clip-rule="evenodd" d="M239.539 212.292L197.227 124.949C197.223 124.95 197.221 124.952 197.217 124.955L180.4 218.88L239.539 212.292Z" fill="#D7E0ED"/>
<path fill-rule="evenodd" clip-rule="evenodd" d="M457.71 410.129L507.162 445.687C522.704 422.644 534.135 396.606 540.433 368.623L457.71 410.129Z" fill="#FAFBFC"/>
<path fill-rule="evenodd" clip-rule="evenodd" d="M409.964 379.546L429.281 357.73L366.27 351.558L409.964 379.546Z" fill="#FAFBFC"/>
<path fill-rule="evenodd" clip-rule="evenodd" d="M249.91 410.274L275.483 430.526L284.989 366.499L249.91 410.274Z" fill="#FAFBFC"/>
<path fill-rule="evenodd" clip-rule="evenodd" d="M321.851 320.083L329.216 374.867L368.576 423.48L380.264 421.73L391.304 406.05L366.27 351.558L321.851 320.083Z" fill="#D0DBE8"/>
<path fill-rule="evenodd" clip-rule="evenodd" d="M540.435 368.609C544.073 352.44 546.004 335.624 546.004 318.356C546.004 306.096 545.023 294.065 543.161 282.329L488.191 291.196L540.435 368.609Z" fill="#D7E0ED"/>
<path fill-rule="evenodd" clip-rule="evenodd" d="M397.333 419.173L439.625 511.23C439.627 511.229 439.629 511.228 439.632 511.226L457.71 410.129L397.333 419.173Z" fill="#D7E0ED"/>
<path fill-rule="evenodd" clip-rule="evenodd" d="M334.077 428.649L303.568 435.085L297.937 448.309L338.777 480.652L334.077 428.649Z" fill="#D7E0ED"/>
<path fill-rule="evenodd" clip-rule="evenodd" d="M440.292 260.056L514.007 201.839C514.006 201.838 514.006 201.837 514.005 201.836L426.712 242.039L427.807 251.939L440.292 260.056Z" fill="#FAFBFC"/>
<path fill-rule="evenodd" clip-rule="evenodd" d="M201.977 337.122L147.529 343.789L201.241 378.669L206.206 374.815L201.977 337.122Z" fill="#FAFBFC"/>
<path fill-rule="evenodd" clip-rule="evenodd" d="M349.398 195.872L341.175 189.456L337.891 198.159L349.398 195.872Z" fill="#FAFBFC"/>
<path fill-rule="evenodd" clip-rule="evenodd" d="M243.55 220.572L223.44 249.815L276.025 287.61L243.55 220.572Z" fill="#FAFBFC"/>
<path fill-rule="evenodd" clip-rule="evenodd" d="M440.476 333.191L433.196 300.692L376.431 310.493L440.476 333.191Z" fill="#D7E0ED"/>
<path fill-rule="evenodd" clip-rule="evenodd" d="M259.423 538.751C278.117 543.706 297.747 546.36 317.999 546.36C328.506 546.36 338.842 545.633 348.972 544.258L338.778 480.651L259.423 538.751Z" fill="#FAFBFC"/>
<path fill-rule="evenodd" clip-rule="evenodd" d="M446.348 359.402L457.711 410.128L540.432 368.622C540.432 368.621 540.432 368.62 540.433 368.618L446.348 359.402Z" fill="#D0DBE8"/>
<path fill-rule="evenodd" clip-rule="evenodd" d="M374.167 430.387L439.624 511.232C439.624 511.231 439.625 511.231 439.626 511.23L397.333 419.173L380.263 421.73L374.167 430.387Z" fill="#FAFBFC"/>
<path fill-rule="evenodd" clip-rule="evenodd" d="M440.475 333.191L448.492 336.033L488.191 291.195L433.195 300.692L440.475 333.191Z" fill="#FAFBFC"/>
<path fill-rule="evenodd" clip-rule="evenodd" d="M334.077 428.649L338.777 480.652L374.168 430.388L368.576 423.48L334.077 428.649Z" fill="#FAFBFC"/>
<path fill-rule="evenodd" clip-rule="evenodd" d="M124.188 438.482C139.683 463.428 159.858 485.16 183.49 502.456L215.063 453.757L124.188 438.482Z" fill="#D0DBE8"/>
<path fill-rule="evenodd" clip-rule="evenodd" d="M273.876 441.349L215.064 453.757L259.406 538.745L259.415 538.748L273.876 441.349Z" fill="#D0DBE8"/>
<path fill-rule="evenodd" clip-rule="evenodd" d="M191.048 277.231L180.4 218.88L96.1342 265.632C96.1342 265.635 96.1333 265.636 96.1333 265.638L191.048 277.231Z" fill="#D0DBE8"/>
<path fill-rule="evenodd" clip-rule="evenodd" d="M209.085 400.473L124.183 438.473C124.185 438.476 124.187 438.479 124.188 438.482L215.064 453.757L209.085 400.473Z" fill="#FAFBFC"/>
<path fill-rule="evenodd" clip-rule="evenodd" d="M258.187 199.284L197.23 124.947C197.229 124.947 197.228 124.948 197.228 124.949L239.539 212.292L250.047 211.122L258.187 199.284Z" fill="#FAFBFC"/>
<path fill-rule="evenodd" clip-rule="evenodd" d="M201.241 378.669L124.182 438.471L124.183 438.473L209.085 400.473L207.064 382.45L201.241 378.669Z" fill="#D7E0ED"/>
<path fill-rule="evenodd" clip-rule="evenodd" d="M92.7607 353.915C97.5588 384.548 108.46 413.154 124.176 438.46L147.529 343.789L92.7607 353.915Z" fill="#DFE7EE"/>
<path fill-rule="evenodd" clip-rule="evenodd" d="M183.836 298.843L96.1327 265.64C96.1318 265.643 96.1309 265.644 96.1309 265.646L147.53 343.789L183.836 298.843Z" fill="#DFE7EE"/>
<path fill-rule="evenodd" clip-rule="evenodd" d="M433.195 300.692L488.191 291.195L440.293 260.055L429.634 268.474L433.195 300.692Z" fill="#DFE7EE"/>
<path fill-rule="evenodd" clip-rule="evenodd" d="M319.889 318.693L276.025 287.61L200.374 278.371L192.936 287.578L195.82 303.38L264.669 329.445L319.889 318.693Z" fill="#DFE7EE"/>
<path fill-rule="evenodd" clip-rule="evenodd" d="M335.806 230.634L303.199 231.6L337.143 286.714L335.806 230.634Z" fill="#FAFBFC"/>
<path fill-rule="evenodd" clip-rule="evenodd" d="M419.578 255.755L456.951 215.602L393.395 223.488L392.077 229.634L419.578 255.755Z" fill="#FAFBFC"/>
<path fill-rule="evenodd" clip-rule="evenodd" d="M297.462 222.283L334.478 174.927L245.835 138.438L245.827 138.441L297.462 222.283Z" fill="#FAFBFC"/>
<path fill-rule="evenodd" clip-rule="evenodd" d="M373.356 211.853L413.862 128.118C413.859 128.117 413.856 128.115 413.853 128.114L334.478 174.927L373.356 211.853Z" fill="#FAFBFC"/>
<path fill-rule="evenodd" clip-rule="evenodd" d="M393.395 223.488L413.865 128.119L413.862 128.118L373.356 211.853L386.505 224.343L393.395 223.488Z" fill="#D7E0ED"/>
<path fill-rule="evenodd" clip-rule="evenodd" d="M492.343 172.596C468.951 152.243 442.193 137.371 413.876 128.123L456.951 215.602L492.343 172.596Z" fill="#DFE7EE"/>
<path fill-rule="evenodd" clip-rule="evenodd" d="M304.682 321.854L358.258 317.402L422.096 275.772L421.861 263.938L409.48 253.702L340.016 278.078L304.682 321.854Z" fill="#DFE7EE"/>
<path fill-rule="evenodd" clip-rule="evenodd" d="M258.187 199.284L291.564 150.747L197.24 124.94C197.237 124.942 197.234 124.944 197.23 124.947L258.187 199.284Z" fill="#DFE7EE"/>
<path fill-rule="evenodd" clip-rule="evenodd" d="M223.44 249.815L180.4 218.88L191.048 277.231L200.374 278.37L223.44 249.815Z" fill="#DFE7EE"/>
</svg>
